<svg xmlns="http://www.w3.org/2000/svg" xmlns:xlink="http://www.w3.org/1999/xlink" preserveAspectRatio="xMidYMid" width="219.5" height="201.031" viewBox="0 0 219.5 201.031">
  <defs>
    <style>
      .cls-1 {
        fill: #e9eef2;
      }

      .cls-1, .cls-2, .cls-3, .cls-4, .cls-5, .cls-7, .cls-8 {
        fill-rule: evenodd;
      }

      .cls-2 {
        fill: #fff;
      }

      .cls-2, .cls-3, .cls-5 {
        stroke: #ced7de;
      }

      .cls-2, .cls-5 {
        stroke-width: 3px;
      }

      .cls-3, .cls-5 {
        stroke-linecap: round;
        fill: none;
      }

      .cls-3 {
        stroke-width: 1px;
      }

      .cls-4, .cls-6 {
        fill: #ced7de;
      }

      .cls-7 {
        fill: #ebf1f5;
      }

      .cls-8 {
        fill: #bbc4cc;
      }
    </style>
  </defs>
  <g>
    <g>
      <path d="M63.000,136.000 C63.000,136.000 37.486,139.922 29.000,146.000 C24.712,149.071 21.739,158.731 47.000,176.000 C72.261,193.269 99.376,216.355 119.000,187.000 C138.624,157.645 63.000,136.000 63.000,136.000 Z" class="cls-1"/>
      <path d="M39.500,53.656 L130.500,41.500 L130.500,163.500 L53.500,158.461 L39.500,53.656 Z" class="cls-2"/>
      <path d="M201.500,69.500 L128.500,41.500 L127.500,162.500 L187.500,163.500 L201.500,69.500 Z" class="cls-2"/>
      <path d="M201.500,70.500 L107.500,93.500 L107.500,199.500 L188.500,175.500 C188.500,175.500 207.989,106.598 201.500,70.500 Z" class="cls-2"/>
      <path d="M126.000,75.000 C126.000,75.000 114.894,93.059 96.000,84.000 C107.119,99.479 126.000,87.000 126.000,87.000 L126.000,75.000 Z" class="cls-1"/>
      <path d="M200.000,69.000 L106.000,92.000 C106.000,92.000 112.450,133.903 133.000,135.000 C149.689,135.022 194.000,115.000 194.000,115.000 C194.000,115.000 202.839,100.231 200.000,69.000 Z" class="cls-1"/>
      <path d="M201.500,70.500 L108.500,93.500 C108.500,93.500 110.870,115.343 128.500,132.500 C137.772,135.389 219.500,101.500 219.500,101.500 C219.500,101.500 204.980,85.084 201.500,70.500 Z" class="cls-2"/>
      <path d="M39.500,53.500 C39.500,53.500 41.093,149.894 48.500,158.500 C55.907,167.106 109.500,199.500 109.500,199.500 L109.500,93.500 L39.500,53.500 Z" class="cls-2"/>
      <path d="M38.000,52.000 C38.000,52.000 44.346,106.683 42.000,109.000 C57.746,120.645 78.566,135.000 81.000,135.000 C105.983,129.626 106.000,92.000 106.000,92.000 L38.000,52.000 Z" class="cls-1"/>
      <path d="M39.500,53.500 C39.500,53.500 37.858,69.341 22.500,82.500 C45.019,103.005 86.762,131.032 86.500,132.500 C103.132,124.050 108.500,93.500 108.500,93.500 L39.500,53.500 Z" class="cls-2"/>
    </g>
    <g>
      <g>
        <path d="M141.615,142.741 C141.615,142.741 134.062,141.665 134.976,137.456 " class="cls-3"/>
        <path d="M160.495,138.235 C160.495,138.235 167.127,134.123 164.562,130.888 " class="cls-3"/>
        <path d="M161.262,142.972 C161.262,142.972 168.066,147.716 180.305,141.710 C180.751,144.470 179.909,146.264 179.909,146.264 C179.909,146.264 167.959,151.848 160.866,147.525 C160.323,144.563 161.262,142.972 161.262,142.972 Z" class="cls-4"/>
        <path d="M124.747,149.132 C124.747,149.132 131.240,152.888 143.686,147.905 C144.150,150.496 144.204,152.466 144.204,152.466 C144.204,152.466 132.217,157.759 124.368,153.795 C123.593,149.534 124.747,149.132 124.747,149.132 Z" class="cls-4"/>
        <path d="M161.437,168.441 C161.437,168.441 153.770,168.842 152.086,167.193 " class="cls-5"/>
      </g>
      <path d="M108.860,44.146 C106.635,47.446 106.237,50.325 107.666,52.785 L108.455,54.616 L101.299,57.672 L100.410,55.613 C98.281,51.102 98.836,46.259 102.071,41.083 C105.042,36.563 105.606,32.799 103.762,29.793 C101.721,26.329 99.133,24.599 95.000,26.000 C90.056,27.798 87.429,31.724 87.779,36.845 C87.807,36.956 87.849,37.060 87.869,37.175 C87.927,37.505 87.942,37.830 87.932,38.149 C87.986,38.489 88.048,38.831 88.128,39.180 L87.763,39.214 C87.357,40.696 86.240,41.866 84.744,42.129 C83.048,42.427 81.410,41.470 80.590,39.890 L79.984,39.947 C78.167,30.248 82.173,21.837 92.000,18.000 C100.815,14.778 107.385,18.762 111.710,26.670 C114.033,31.639 113.085,37.464 108.860,44.146 Z" class="cls-4"/>
      <ellipse cx="108.5" cy="65" rx="4.5" ry="4" class="cls-6"/>
      <path d="M152.263,63.223 C151.405,66.097 148.947,68.129 144.886,69.319 C142.827,69.856 141.639,70.887 141.325,72.410 L140.983,73.445 L137.059,72.088 L137.444,70.925 C138.215,68.309 140.166,66.534 143.297,65.599 C146.088,64.835 147.657,63.504 148.003,61.606 C148.434,59.450 147.581,57.908 145.445,56.976 C142.868,55.920 140.780,56.475 139.180,58.628 C139.146,58.698 139.118,58.770 139.077,58.837 C138.993,58.974 138.899,59.100 138.797,59.215 C138.686,59.393 138.569,59.554 138.463,59.750 L138.306,59.631 C137.616,60.088 136.755,60.159 136.070,59.722 C135.292,59.227 134.987,58.240 135.227,57.298 L134.967,57.100 C137.717,52.481 141.723,51.175 146.982,53.185 C151.620,55.076 153.380,58.422 152.263,63.223 Z" class="cls-4"/>
      <circle cx="137.5" cy="77.5" r="2.5" class="cls-6"/>
    </g>
    <g>
      <path d="M150.000,7.000 L145.000,7.000 L145.000,12.000 L143.000,12.000 L143.000,7.000 L138.000,7.000 L138.000,5.000 L143.000,5.000 L143.000,-0.000 L145.000,-0.000 L145.000,5.000 L150.000,5.000 L150.000,7.000 Z" class="cls-4"/>
      <path d="M49.000,42.000 L43.000,42.000 L43.000,48.000 L41.000,48.000 L41.000,42.000 L35.000,42.000 L35.000,40.000 L41.000,40.000 L41.000,34.000 L43.000,34.000 L43.000,40.000 L49.000,40.000 L49.000,42.000 Z" class="cls-1"/>
      <path d="M9.000,130.000 L8.702,130.000 C8.615,130.050 8.520,130.087 8.413,130.087 L6.000,130.087 L6.000,134.000 L4.000,134.000 L4.000,133.702 C3.949,133.615 3.913,133.520 3.913,133.413 L3.913,130.087 L0.587,130.087 C0.479,130.087 0.384,130.050 0.298,130.000 L-0.000,130.000 L-0.000,128.000 L3.913,128.000 L3.913,125.587 C3.913,125.479 3.949,125.384 4.000,125.298 L4.000,125.000 L6.000,125.000 L6.000,128.000 L9.000,128.000 L9.000,130.000 Z" class="cls-4"/>
      <path d="M129.000,32.000 L129.000,35.000 L128.666,35.000 L127.333,35.000 L127.000,35.000 L127.000,32.000 L124.000,32.000 L124.000,31.666 L124.000,30.333 L124.000,30.000 L127.000,30.000 L127.000,27.000 L127.333,27.000 L128.666,27.000 L129.000,27.000 L129.000,30.000 L132.000,30.000 L132.000,30.333 L132.000,31.666 L132.000,32.000 L129.000,32.000 Z" class="cls-7"/>
      <path d="M212.000,164.500 L209.500,164.500 L209.500,167.000 L208.500,167.000 L208.500,164.500 L206.000,164.500 L206.000,163.500 L208.500,163.500 L208.500,161.000 L209.500,161.000 L209.500,163.500 L212.000,163.500 L212.000,164.500 Z" class="cls-8"/>
      <path d="M94.000,74.000 L92.000,74.000 L92.000,77.000 L90.000,77.000 L90.000,74.000 L87.000,74.000 L87.000,72.000 L90.000,72.000 L90.000,69.000 L92.000,69.000 L92.000,72.000 L94.000,72.000 L94.000,74.000 Z" class="cls-4"/>
    </g>
  </g>
</svg>
